HIERARCHY
ROOT hip
{
  OFFSET 0 0 0
  CHANNELS 6 Xposition Yposition Zposition Zrotation Yrotation Xrotation
  JOINT abdomen
  {
    OFFSET 0 20.6881 -0.73152
    CHANNELS 3 Zrotation Xrotation Yrotation
    JOINT chest
    {
      OFFSET 0 11.7043 -0.48768
      CHANNELS 3 Zrotation Xrotation Yrotation
      JOINT neck
      {
        OFFSET 0 22.1894 -2.19456
        CHANNELS 3 Zrotation Xrotation Yrotation
        JOINT head
        {
          OFFSET -0.24384 7.07133 1.2192
          CHANNELS 3 Zrotation Xrotation Yrotation
          JOINT leftEye
          {
            OFFSET 4.14528 8.04674 8.04672
            CHANNELS 3 Zrotation Xrotation Yrotation
            End Site
            {
              OFFSET 1 0 0
            }
          }
          JOINT rightEye
          {
            OFFSET -3.6576 8.04674 8.04672
            CHANNELS 3 Zrotation Xrotation Yrotation
            End Site
            {
              OFFSET 1 0 0
            }
          }
        }
      }
      JOINT rCollar
      {
        OFFSET -2.68224 19.2634 -4.8768
        CHANNELS 3 Zrotation Xrotation Yrotation
        JOINT rShldr
        {
          OFFSET -8.77824 -1.95073 1.46304
          CHANNELS 3 Zrotation Xrotation Yrotation
          JOINT rForeArm
          {
            OFFSET -28.1742 -1.7115 0.48768
            CHANNELS 3 Zrotation Xrotation Yrotation
            JOINT rHand
            {
              OFFSET -22.5879 0.773209 7.07136
              CHANNELS 3 Zrotation Xrotation Yrotation
              JOINT rThumb1
              {
                OFFSET -1.2192 -0.487915 3.41376
                CHANNELS 3 Zrotation Xrotation Yrotation
                JOINT rThumb2
                {
                  OFFSET -3.37035 -0.52449 3.41376
                  CHANNELS 3 Zrotation Xrotation Yrotation
                  End Site
                  {
                    OFFSET -1.78271 -1.18214 1.43049
                  }
                }
              }
              JOINT rIndex1
              {
                OFFSET -7.75947 0.938293 5.60832
                CHANNELS 3 Zrotation Xrotation Yrotation
                JOINT rIndex2
                {
                  OFFSET -2.54057 -0.884171 1.56538
                  CHANNELS 3 Zrotation Xrotation Yrotation
                  End Site
                  {
                    OFFSET -1.62519 -0.234802 1.16502
                  }
                }
              }
              JOINT rMid1
              {
                OFFSET -8.24714 1.18213 3.41376
                CHANNELS 3 Zrotation Xrotation Yrotation
                JOINT rMid2
                {
                  OFFSET -3.10165 -0.590103 1.0647
                  CHANNELS 3 Zrotation Xrotation Yrotation
                  End Site
                  {
                    OFFSET -2.48547 -0.328903 0.83742
                  }
                }
              }
              JOINT rRing1
              {
                OFFSET -8.82822 0.546677 1.51678
                CHANNELS 3 Zrotation Xrotation Yrotation
                JOINT rRing2
                {
                  OFFSET -2.60934 -0.819778 -0.0198488
                  CHANNELS 3 Zrotation Xrotation Yrotation
                  End Site
                  {
                    OFFSET -2.33842 -0.294052 0.168128
                  }
                }
              }
              JOINT rPinky1
              {
                OFFSET -8.27202 -0.0477905 -0.4584
                CHANNELS 3 Zrotation Xrotation Yrotation
                JOINT rPinky2
                {
                  OFFSET -1.82734 -0.647385 -0.700984
                  CHANNELS 3 Zrotation Xrotation Yrotation
                  End Site
                  {
                    OFFSET -1.69225 -0.51767 -0.607171
                  }
                }
              }
            }
          }
        }
      }
      JOINT lCollar
      {
        OFFSET 2.68224 19.2634 -4.8768
        CHANNELS 3 Zrotation Xrotation Yrotation
        JOINT lShldr
        {
          OFFSET 8.77824 -1.95073 1.46304
          CHANNELS 3 Zrotation Xrotation Yrotation
          JOINT lForeArm
          {
            OFFSET 28.1742 -1.7115 0.48768
            CHANNELS 3 Zrotation Xrotation Yrotation
            JOINT lHand
            {
              OFFSET 22.5879 0.773209 7.07136
              CHANNELS 3 Zrotation Xrotation Yrotation
              JOINT lThumb1
              {
                OFFSET 1.2192 -0.487915 3.41376
                CHANNELS 3 Zrotation Xrotation Yrotation
                JOINT lThumb2
                {
                  OFFSET 3.37035 -0.52449 3.41376
                  CHANNELS 3 Zrotation Xrotation Yrotation
                  End Site
                  {
                    OFFSET 1.78271 -1.18214 1.43049
                  }
                }
              }
              JOINT lIndex1
              {
                OFFSET 7.75947 0.938293 5.60832
                CHANNELS 3 Zrotation Xrotation Yrotation
                JOINT lIndex2
                {
                  OFFSET 2.54057 -0.884171 1.56538
                  CHANNELS 3 Zrotation Xrotation Yrotation
                  End Site
                  {
                    OFFSET 1.62519 -0.234802 1.16502
                  }
                }
              }
              JOINT lMid1
              {
                OFFSET 8.24714 1.18213 3.41376
                CHANNELS 3 Zrotation Xrotation Yrotation
                JOINT lMid2
                {
                  OFFSET 3.10165 -0.590103 1.0647
                  CHANNELS 3 Zrotation Xrotation Yrotation
                  End Site
                  {
                    OFFSET 2.48547 -0.328903 0.83742
                  }
                }
              }
              JOINT lRing1
              {
                OFFSET 8.82822 0.546677 1.51678
                CHANNELS 3 Zrotation Xrotation Yrotation
                JOINT lRing2
                {
                  OFFSET 2.60934 -0.819778 -0.0198488
                  CHANNELS 3 Zrotation Xrotation Yrotation
                  End Site
                  {
                    OFFSET 2.33842 -0.294052 0.168128
                  }
                }
              }
              JOINT lPinky1
              {
                OFFSET 8.27202 -0.0477905 -0.4584
                CHANNELS 3 Zrotation Xrotation Yrotation
                JOINT lPinky2
                {
                  OFFSET 1.82734 -0.647385 -0.700984
                  CHANNELS 3 Zrotation Xrotation Yrotation
                  End Site
                  {
                    OFFSET 1.69225 -0.51767 -0.607171
                  }
                }
              }
            }
          }
        }
      }
    }
  }
  JOINT rButtock
  {
    OFFSET -8.77824 4.35084 1.2192
    CHANNELS 3 Zrotation Xrotation Yrotation
    JOINT rThigh
    {
      OFFSET 0 -1.70687 -2.19456
      CHANNELS 3 Zrotation Xrotation Yrotation
      JOINT rShin
      {
        OFFSET 0 -36.8199 0.73152
        CHANNELS 3 Zrotation Xrotation Yrotation
        JOINT rFoot
        {
          OFFSET 0.73152 -45.1104 -5.12064
          CHANNELS 3 Zrotation Xrotation Yrotation
          End Site
          {
            OFFSET -1.1221 -3.69964 12.103
          }
        }
      }
    }
  }
  JOINT lButtock
  {
    OFFSET 8.77824 4.35084 1.2192
    CHANNELS 3 Zrotation Xrotation Yrotation
    JOINT lThigh
    {
      OFFSET 0 -1.70687 -2.19456
      CHANNELS 3 Zrotation Xrotation Yrotation
      JOINT lShin
      {
        OFFSET 0 -36.8199 0.73152
        CHANNELS 3 Zrotation Xrotation Yrotation
        JOINT lFoot
        {
          OFFSET -0.73152 -45.1104 -5.12064
          CHANNELS 3 Zrotation Xrotation Yrotation
          End Site
          {
            OFFSET 1.1221 -3.69964 12.103
          }
        }
      }
    }
  }
}
MOTION
Frames:	6
Frame Time:	0.03333
0.15764699783176184 53.27820181846619 -0.4244999960064888 -12.992497444152832 -35.398597717285156 12.980399131774902 3.377215623855591 10.369097709655762 5.308144569396973 2.324148178100586 -7.701583385467529 1.4091497659683228 -0.06912399083375931 12.720392227172852 7.704793453216553 5.043002128601074 -26.274490356445312 16.514009475708008 -0.0 0.0 -0.0 -0.0 0.0 -0.0 -0.0 0.0 -0.0 108.14798736572266 46.767677307128906 -56.811912536621094 -27.226987838745117 -43.376304626464844 90.21778869628906 -10.987462997436523 -64.7235336303711 -17.292421340942383 -0.0 0.0 -0.0 -0.0 0.0 -0.0 -0.0 0.0 -0.0 7.73087739944458 5.47489595413208 0.41732463240623474 -0.0 0.0 -0.0 2.9054994583129883 0.9650753736495972 0.10300876200199127 -0.0 0.0 -0.0 10.278595924377441 0.7317469120025635 0.026285577565431595 -0.0 0.0 -0.0 2.221662759780884 -0.7335850596427917 -0.20831839740276337 -0.0 0.0 -0.0 -75.34329986572266 -28.651098251342773 -88.01860046386719 6.267353534698486 -2.1643264293670654 -10.96490478515625 23.72388458251953 74.63375091552734 -30.791168212890625 -0.0 0.0 -0.0 -0.0 0.0 -0.0 -0.0 0.0 -0.0 -7.73087739944458 5.47489595413208 -0.41732463240623474 -0.0 0.0 -0.0 -2.9054994583129883 0.9650753736495972 -0.10300876200199127 -0.0 0.0 -0.0 -10.278595924377441 0.7317469120025635 -0.026285577565431595 -0.0 0.0 -0.0 -2.221662759780884 -0.7335850596427917 0.20831839740276337 -0.0 0.0 -0.0 -17.083187103271484 0.3492395877838135 -8.341476440429688 -0.178440660238266 47.2610969543457 2.6992881298065186 -7.567697048187256 -17.233205795288086 -28.005199432373047 -0.0 0.0 -0.0 68.82310485839844 -57.79249572753906 59.02281188964844 2.502627372741699 71.55058288574219 -2.3800108432769775 -0.6107598543167114 4.729468822479248 1.5060604810714722
0.29146099695935845 53.19479703903198 -0.9471000172197819 -12.499601364135742 -35.53639221191406 12.522608757019043 2.608018398284912 10.777592658996582 5.385523319244385 2.359316349029541 -7.718767166137695 1.3939472436904907 -0.08480603247880936 12.826297760009766 7.6940836906433105 4.978911399841309 -26.581090927124023 16.500411987304688 -0.0 0.0 -0.0 -0.0 0.0 -0.0 -0.0 0.0 -0.0 108.16200256347656 46.86952590942383 -56.639984130859375 -27.234100341796875 -43.35529327392578 90.17669677734375 -10.899520874023438 -64.58174133300781 -17.188358306884766 -0.0 0.0 -0.0 -0.0 0.0 -0.0 -0.0 0.0 -0.0 7.73087739944458 5.47489595413208 0.41732463240623474 -0.0 0.0 -0.0 2.9054994583129883 0.9650753736495972 0.10300876200199127 -0.0 0.0 -0.0 10.278595924377441 0.7317469120025635 0.026285577565431595 -0.0 0.0 -0.0 2.221662759780884 -0.7335850596427917 -0.20831839740276337 -0.0 0.0 -0.0 -75.02569580078125 -28.68119239807129 -87.97148895263672 6.299286365509033 -2.1790902614593506 -11.022183418273926 23.19005012512207 74.4217300415039 -30.25279426574707 -0.0 0.0 -0.0 -0.0 0.0 -0.0 -0.0 0.0 -0.0 -7.73087739944458 5.47489595413208 -0.41732463240623474 -0.0 0.0 -0.0 -2.9054994583129883 0.9650753736495972 -0.10300876200199127 -0.0 0.0 -0.0 -10.278595924377441 0.7317469120025635 -0.026285577565431595 -0.0 0.0 -0.0 -2.221662759780884 -0.7335850596427917 0.20831839740276337 -0.0 0.0 -0.0 -17.770998001098633 -1.2517683506011963 -7.636395454406738 -0.24910253286361694 50.34199905395508 2.8154220581054688 -6.953758239746094 -16.952892303466797 -26.787803649902344 -0.0 0.0 -0.0 67.65691375732422 -58.137603759765625 57.821502685546875 2.4297757148742676 71.11510467529297 -2.2860288619995117 -0.7517737150192261 5.262294769287109 1.8294479846954346
0.3808639943599701 53.09780240058899 -1.5682999975979328 -11.988509178161621 -35.688697814941406 12.030196189880371 1.8210581541061401 11.193807601928711 5.492298126220703 2.396310806274414 -7.723312854766846 1.385029911994934 -0.16485920548439026 12.928495407104492 7.712052345275879 5.052179336547852 -26.825395584106445 16.57459831237793 -0.0 0.0 -0.0 -0.0 0.0 -0.0 -0.0 0.0 -0.0 108.20299530029297 46.97800827026367 -56.507102966308594 -27.193803787231445 -43.475303649902344 90.4094009399414 -11.047986030578613 -64.79750061035156 -17.35640525817871 -0.0 0.0 -0.0 -0.0 0.0 -0.0 -0.0 0.0 -0.0 7.73087739944458 5.47489595413208 0.41732463240623474 -0.0 0.0 -0.0 2.9054994583129883 0.9650753736495972 0.10300876200199127 -0.0 0.0 -0.0 10.278595924377441 0.7317469120025635 0.026285577565431595 -0.0 0.0 -0.0 2.221662759780884 -0.7335850596427917 -0.20831839740276337 -0.0 0.0 -0.0 -74.77559661865234 -28.730802536010742 -87.91229248046875 6.322626113891602 -2.189486026763916 -11.064080238342285 22.99752426147461 74.29598999023438 -30.034915924072266 -0.0 0.0 -0.0 -0.0 0.0 -0.0 -0.0 0.0 -0.0 -7.73087739944458 5.47489595413208 -0.41732463240623474 -0.0 0.0 -0.0 -2.9054994583129883 0.9650753736495972 -0.10300876200199127 -0.0 0.0 -0.0 -10.278595924377441 0.7317469120025635 -0.026285577565431595 -0.0 0.0 -0.0 -2.221662759780884 -0.7335850596427917 0.20831839740276337 -0.0 0.0 -0.0 -18.31780242919922 -3.1221277713775635 -6.549644947052002 -0.3426743745803833 53.741390228271484 2.9485795497894287 -6.347888469696045 -16.9152889251709 -25.256908416748047 -0.0 0.0 -0.0 66.54169464111328 -58.46311569213867 56.5972900390625 2.3518142700195312 70.63479614257812 -2.1923043727874756 -0.9232048392295837 5.919445514678955 2.1306636333465576
0.41401499474886805 52.985501289367676 -2.2843999788165092 -11.52401065826416 -35.80628967285156 11.530301094055176 1.0321834087371826 11.628693580627441 5.588395118713379 2.418339729309082 -7.715512752532959 1.3693523406982422 -0.24253423511981964 13.038505554199219 7.728848457336426 5.121143341064453 -27.044208526611328 16.642690658569336 -0.0 0.0 -0.0 -0.0 0.0 -0.0 -0.0 0.0 -0.0 108.26598358154297 47.07150650024414 -56.391788482666016 -27.155986785888672 -43.583316802978516 90.62229919433594 -11.155776023864746 -64.93196868896484 -17.47170066833496 -0.0 0.0 -0.0 -0.0 0.0 -0.0 -0.0 0.0 -0.0 7.73087739944458 5.47489595413208 0.41732463240623474 -0.0 0.0 -0.0 2.9054994583129883 0.9650753736495972 0.10300876200199127 -0.0 0.0 -0.0 10.278595924377441 0.7317469120025635 0.026285577565431595 -0.0 0.0 -0.0 2.221662759780884 -0.7335850596427917 -0.20831839740276337 -0.0 0.0 -0.0 -74.0374984741211 -28.78260040283203 -87.59649658203125 6.383978843688965 -2.2175920009613037 -11.174105644226074 21.931625366210938 73.80411529541016 -28.93863296508789 -0.0 0.0 -0.0 -0.0 0.0 -0.0 -0.0 0.0 -0.0 -7.73087739944458 5.47489595413208 -0.41732463240623474 -0.0 0.0 -0.0 -2.9054994583129883 0.9650753736495972 -0.10300876200199127 -0.0 0.0 -0.0 -10.278595924377441 0.7317469120025635 -0.026285577565431595 -0.0 0.0 -0.0 -2.221662759780884 -0.7335850596427917 0.20831839740276337 -0.0 0.0 -0.0 -18.691102981567383 -5.119021415710449 -5.184811115264893 -0.4682177007198334 57.27149200439453 3.1024372577667236 -5.747372150421143 -17.068008422851562 -23.478792190551758 -0.0 0.0 -0.0 65.32949829101562 -58.775604248046875 55.207096099853516 2.2553458213806152 70.03350830078125 -2.0848584175109863 -1.1215587854385376 6.680642127990723 2.410106658935547
0.39334899483947083 52.877700328826904 -3.0873999930918217 -11.078393936157227 -35.84669876098633 10.98630142211914 0.3257276713848114 12.077592849731445 5.640048503875732 2.398294687271118 -7.685972213745117 1.3378092050552368 -0.25321629643440247 13.155905723571777 7.716042995452881 5.072736740112305 -27.24376106262207 16.6175594329834 -0.0 0.0 -0.0 -0.0 0.0 -0.0 -0.0 0.0 -0.0 108.36198425292969 47.12828063964844 -56.284095764160156 -27.178607940673828 -43.51839065551758 90.49468231201172 -10.826851844787598 -64.4806900024414 -17.107786178588867 -0.0 0.0 -0.0 -0.0 0.0 -0.0 -0.0 0.0 -0.0 7.73087739944458 5.47489595413208 0.41732463240623474 -0.0 0.0 -0.0 2.9054994583129883 0.9650753736495972 0.10300876200199127 -0.0 0.0 -0.0 10.278595924377441 0.7317469120025635 0.026285577565431595 -0.0 0.0 -0.0 2.221662759780884 -0.7335850596427917 -0.20831839740276337 -0.0 0.0 -0.0 -72.023193359375 -28.80609893798828 -86.66820526123047 6.542632102966309 -2.291168451309204 -11.458998680114746 19.178665161132812 72.27948760986328 -26.068470001220703 -0.0 0.0 -0.0 -0.0 0.0 -0.0 -0.0 0.0 -0.0 -7.73087739944458 5.47489595413208 -0.41732463240623474 -0.0 0.0 -0.0 -2.9054994583129883 0.9650753736495972 -0.10300876200199127 -0.0 0.0 -0.0 -10.278595924377441 0.7317469120025635 -0.026285577565431595 -0.0 0.0 -0.0 -2.221662759780884 -0.7335850596427917 0.20831839740276337 -0.0 0.0 -0.0 -18.803987503051758 -7.099241256713867 -3.6005215644836426 -0.6235830187797546 60.74028778076172 3.2704017162323 -5.163928031921387 -17.415000915527344 -21.510601043701172 -0.0 0.0 -0.0 64.02359008789062 -59.05509567260742 53.61149215698242 2.141113758087158 69.27849578857422 -1.9654728174209595 -1.3397324085235596 7.512094974517822 2.650327444076538
0.3521339953294955 52.827298641204834 -3.976299986243248 -10.515495300292969 -35.77310562133789 10.293907165527344 -0.41273510456085205 12.550682067871094 5.63188362121582 2.359445095062256 -7.652919292449951 1.2852391004562378 -0.24686317145824432 13.276511192321777 7.692360877990723 4.967838287353516 -27.41827392578125 16.553234100341797 -0.0 0.0 -0.0 -0.0 0.0 -0.0 -0.0 0.0 -0.0 108.45698547363281 47.14968490600586 -56.18210220336914 -27.215299606323242 -43.41069793701172 90.28480529785156 -10.494756698608398 -63.97709274291992 -16.729846954345703 -0.0 0.0 -0.0 -0.0 0.0 -0.0 -0.0 0.0 -0.0 7.73087739944458 5.47489595413208 0.41732463240623474 -0.0 0.0 -0.0 2.9054994583129883 0.9650753736495972 0.10300876200199127 -0.0 0.0 -0.0 10.278595924377441 0.7317469120025635 0.026285577565431595 -0.0 0.0 -0.0 2.221662759780884 -0.7335850596427917 -0.20831839740276337 -0.0 0.0 -0.0 -69.50690460205078 -28.76829719543457 -85.45899963378906 6.750177383422852 -2.3886759281158447 -11.832694053649902 16.244611740112305 70.22976684570312 -22.97937774658203 -0.0 0.0 -0.0 -0.0 0.0 -0.0 -0.0 0.0 -0.0 -7.73087739944458 5.47489595413208 -0.41732463240623474 -0.0 0.0 -0.0 -2.9054994583129883 0.9650753736495972 -0.10300876200199127 -0.0 0.0 -0.0 -10.278595924377441 0.7317469120025635 -0.026285577565431595 -0.0 0.0 -0.0 -2.221662759780884 -0.7335850596427917 0.20831839740276337 -0.0 0.0 -0.0 -18.746292114257812 -9.029289245605469 -1.8217543363571167 -0.8231704831123352 64.05059814453125 3.4556264877319336 -4.5854058265686035 -17.953983306884766 -19.36011505126953 -0.0 0.0 -0.0 62.36650085449219 -59.32851028442383 51.63779830932617 1.9999626874923706 68.29461669921875 -1.8268343210220337 -1.5871655941009521 8.473209381103516 2.874211549758911
